HIERARCHY
ROOT Hips
{
  OFFSET 0 0 0
  CHANNELS 6 Xposition Yposition Zposition Zrotation Xrotation Yrotation
  JOINT Spine
  {
    OFFSET 0 10.1816 0.131521
    CHANNELS 3 Zrotation Xrotation Yrotation
    JOINT Spine1
    {
      OFFSET 0 10.0835 -1.0008
      CHANNELS 3 Zrotation Xrotation Yrotation
      JOINT Spine2
      {
        OFFSET 0 9.10001 -1.37342
        CHANNELS 3 Zrotation Xrotation Yrotation
        JOINT Neck
        {
          OFFSET 0 16.6717 -2.51617
          CHANNELS 3 Zrotation Xrotation Yrotation
          JOINT Head
          {
            OFFSET 0 9.61788 1.68501
            CHANNELS 3 Zrotation Xrotation Yrotation
            End Site
            {
              OFFSET 0 0 0
            }
          }
        }
        JOINT LeftShoulder
        {
          OFFSET 4.57045 10.946 -2.62799
          CHANNELS 3 Zrotation Xrotation Yrotation
          JOINT LeftArm
          {
            OFFSET 10.5924 -0.524583 -2.23212
            CHANNELS 3 Zrotation Xrotation Yrotation
            JOINT LeftForeArm
            {
              OFFSET 27.8415 -8.94286e-05 3.74589e-05
              CHANNELS 3 Zrotation Xrotation Yrotation
              JOINT LeftHand
              {
                OFFSET 28.3288 -1.74407e-05 3.78045e-05
                CHANNELS 3 Zrotation Xrotation Yrotation
                End Site
                {
                  OFFSET 0 0 0
                }
              }
            }
          }
        }
        JOINT RightShoulder
        {
          OFFSET -4.56997 10.9462 -2.62802
          CHANNELS 3 Zrotation Xrotation Yrotation
          JOINT RightArm
          {
            OFFSET -10.5928 -0.524798 -2.2321
            CHANNELS 3 Zrotation Xrotation Yrotation
            JOINT RightForeArm
            {
              OFFSET -27.8415 -3.30792e-05 1.16763e-05
              CHANNELS 3 Zrotation Xrotation Yrotation
              JOINT RightHand
              {
                OFFSET -28.3288 0 5.5816e-05
                CHANNELS 3 Zrotation Xrotation Yrotation
                End Site
                {
                  OFFSET 0 0 0
                }
              }
            }
          }
        }
      }
    }
  }
  JOINT LeftUpLeg
  {
    OFFSET 8.20778 -6.75171 -1.59956
    CHANNELS 3 Zrotation Xrotation Yrotation
    JOINT LeftLeg
    {
      OFFSET 0 -44.3705 0.284643
      CHANNELS 3 Zrotation Xrotation Yrotation
      JOINT LeftFoot
      {
        OFFSET 0 -44.4279 -2.98219
        CHANNELS 3 Zrotation Xrotation Yrotation
        JOINT LeftToeBase
        {
          OFFSET 0 -8.72867 10.7106
          CHANNELS 3 Zrotation Xrotation Yrotation
          End Site
          {
            OFFSET 0 0 0
          }
        }
      }
    }
  }
  JOINT RightUpLeg
  {
    OFFSET -8.2078 -6.75166 -1.59956
    CHANNELS 3 Zrotation Xrotation Yrotation
    JOINT RightLeg
    {
      OFFSET 0 -44.3705 0.286156
      CHANNELS 3 Zrotation Xrotation Yrotation
      JOINT RightFoot
      {
        OFFSET 0 -44.4277 -2.98379
        CHANNELS 3 Zrotation Xrotation Yrotation
        JOINT RightToeBase
        {
          OFFSET 0 -8.72867 10.7106
          CHANNELS 3 Zrotation Xrotation Yrotation
          End Site
          {
            OFFSET 0 0 0
          }
        }
      }
    }
  }
}
MOTION
Frames:	8
Frame Time:	0.0333333
45.4145 100.378 39.2586 2.85622 -0.545489 -105.345 -0.595343 1.00639 0.795101 -1.20489 2.00437 1.60103 -1.20488 2.00438 1.601 5.42849 13.4971 -1.62664 -5.35762 -15.8401 0.911959 -3.65904 0.151198 1.9059 -24.5425 21.9866 -49.5256 12.4761 -17.8942 -52.4717 15.8249 9.14111 5.27817 1.80352 1.28387 9.66371 38.7414 8.0359 51.6375 -5.96018 -8.32397 49.7618 -26.789 13.8421 7.84717 2.13708 -24.0965 23.3136 1.82803 23.9046 -0.902274 -3.13731 -7.98731 -0.106125 -2.94978e-06 1.28441e-06 -1.68707e-05 -2.5755 -12.1964 -25.4876 -6.19731 32.4792 3.53554 4.98209 -19.7993 0.75673 -2.63481e-06 -6.07664e-07 -2.63666e-05 
46.5688 100.274 39.4948 2.5259 -0.548709 -105.714 -0.584218 1.11626 0.943548 -1.18708 2.22269 1.89891 -1.18708 2.22268 1.89895 4.8875 13.4601 -1.45698 -4.92414 -15.4809 0.851501 -4.22663 0.0272943 3.00675 -26.8989 24.681 -45.2769 11.7777 -17.6535 -53.8032 13.3765 9.83432 5.30496 2.06314 1.27502 9.28233 38.7161 9.01232 50.0177 -5.86372 -8.20325 49.7756 -25.3109 14.3073 7.41065 2.24647 -24.5144 23.4799 1.86177 23.9672 -0.81026 -3.34026 -7.40954 -0.0183946 -2.94978e-06 1.28441e-06 -1.68707e-05 -0.454113 -10.7714 -21.2104 -6.104 28.5838 0.734879 4.49059 -22.0505 -0.900808 -2.63481e-06 -6.07664e-07 -2.63666e-05 
47.7497 100.168 39.7551 2.36059 -0.366988 -105.512 -0.50439 1.20939 1.00533 -1.03031 2.40969 2.02234 -1.0303 2.40966 2.02232 4.53843 13.6543 -1.47733 -4.77693 -15.4213 0.68838 -4.61151 -0.0461076 3.61459 -29.1161 27.6637 -41.276 11.6178 -17.4786 -53.8902 11.676 11.0029 5.43809 2.40212 1.26219 8.79688 38.8999 9.91662 48.2704 -5.89717 -8.27648 49.8795 -23.7407 14.9127 6.78181 2.49482 -25.2024 23.2101 1.73692 24.2176 -0.644513 -3.73573 -6.81735 0.0746178 -2.94978e-06 1.28441e-06 -1.68707e-05 1.28411 -9.68178 -16.8586 -5.49176 25.4635 -2.4613 3.05725 -23.3001 -2.9193 -2.63481e-06 -6.07664e-07 -2.63666e-05 
48.9285 100.256 40.0342 2.36727 0.547245 -104.733 -0.240529 1.32412 0.98294 -0.503965 2.64393 1.97221 -0.503953 2.6439 1.97219 3.96852 13.8575 -1.54821 -4.46891 -15.3616 0.36858 -4.94059 -0.0707525 3.80312 -31.1284 30.835 -37.5453 11.7398 -17.2232 -53.2244 10.2533 10.6659 6.36005 2.901 1.25345 8.22418 39.4631 10.5268 46.2553 -5.74377 -8.16013 50.1679 -22.326 14.8526 6.10117 3.73589 -25.7993 23.4435 1.4348 24.443 -1.05917 -5.04403 -5.96758 -0.271556 -2.94978e-06 1.28441e-06 -1.68707e-05 3.09506 -9.26344 -13.5165 -4.84421 23.6961 -5.19272 2.05362 -22.6871 -4.68785 -2.63481e-06 -6.07664e-07 -2.63666e-05 
50.1617 100.208 40.2811 2.54544 1.34354 -103.724 0.0156149 1.40158 0.908855 0.00896435 2.80323 1.8184 0.00898276 2.80322 1.81839 3.42517 14.0858 -1.66207 -4.25949 -15.5052 0.0139342 -4.98032 -0.0870109 3.93034 -33.1044 34.2611 -34.3176 12.1203 -16.9953 -51.9148 9.06873 9.20376 6.79143 3.2615 1.20915 7.49767 40.2664 11.0511 44.2888 -5.53032 -7.95019 50.4157 -21.1673 15.2389 5.75934 5.65749 -26.943 23.3174 0.420406 25.7745 -1.42264 -9.55109 -5.96415 -0.836393 -2.94978e-06 1.28441e-06 -1.68707e-05 3.94672 -9.74267 -12.1397 -3.82897 23.3634 -6.79939 1.23317 -22.2799 -5.61866 -2.63481e-06 -6.07664e-07 -2.63666e-05 
51.3215 100.043 40.5327 2.8798 2.00221 -102.693 0.229244 1.43075 0.8628 0.437096 2.86479 1.72067 0.437108 2.86478 1.72067 3.20371 14.1581 -1.95384 -4.41618 -15.6028 -0.368929 -4.81792 -0.0835157 3.91053 -34.4735 37.8221 -32.138 12.7197 -16.6007 -49.8062 8.06856 7.89526 7.26739 3.77974 1.13578 6.43667 40.5773 11.8922 42.5197 -5.39117 -7.84424 50.6938 -19.7939 15.4933 5.24413 8.19323 -28.4955 23.6983 -0.847192 27.9437 -2.64515 -16.0134 -5.74316 -2.11697 -2.94978e-06 1.28441e-06 -1.68707e-05 4.4736 -10.7713 -12.3421 -3.34026 23.6971 -7.36908 0.830695 -22.1682 -5.94157 -2.63481e-06 -6.07664e-07 -2.63666e-05 
52.3316 99.7685 40.8146 3.04201 2.85335 -101.979 0.422407 1.49156 0.872606 0.822465 2.98936 1.73506 0.822466 2.98936 1.73505 3.38245 14.1933 -2.2894 -4.5599 -15.7597 -0.641714 -4.8169 -0.0467243 3.61415 -36.1996 40.2039 -29.6146 13.1498 -16.3321 -48.3252 5.89268 9.00554 7.64728 4.45315 1.09122 5.59447 41.0049 12.6183 40.5538 -5.22043 -7.70519 51.0331 -18.6054 15.3805 4.74416 11.2765 -29.5807 24.743 -1.74516 30.182 -5.31622 -22.7632 -5.23768 -4.3047 -2.94978e-06 1.28441e-06 -1.68707e-05 5.38943 -11.7024 -12.1785 -3.3893 24.308 -7.80716 0.713684 -22.2012 -6.28349 -2.63481e-06 -6.07664e-07 -2.63666e-05 
53.2034 99.5377 41.1018 2.99177 3.61649 -101.241 0.576428 1.57946 0.816156 1.13093 3.16687 1.6173 1.13094 3.16687 1.6173 3.48308 14.1323 -2.51567 -4.47535 -15.8692 -0.851807 -4.64014 -0.0377804 3.54562 -38.0649 42.3006 -27.172 13.3908 -16.0923 -47.3443 4.37034 9.20897 7.85947 4.92299 1.0527 4.99394 41.4989 13.6245 38.6802 -5.15833 -7.62633 51.0248 -17.8729 15.0428 4.54445 13.7196 -30.5164 24.8342 -1.91555 32.6659 -8.0932 -26.1387 -5.07271 -6.38621 -2.94978e-06 1.28441e-06 -1.68707e-05 6.29598 -12.2858 -11.5597 -3.4964 24.7111 -8.53848 0.543539 -22.2037 -6.84489 -2.63481e-06 -6.07664e-07 -2.63666e-05 
